<?xml version="1.0" encoding="UTF-8" standalone="no"?>
<!-- Generator: Adobe Illustrator 16.0.4, SVG Export Plug-In . SVG Version: 6.00 Build 0)  -->

<svg
        xmlns:dc="http://purl.org/dc/elements/1.1/"
        xmlns:cc="http://creativecommons.org/ns#"
        xmlns:rdf="http://www.w3.org/1999/02/22-rdf-syntax-ns#"
        xmlns:svg="http://www.w3.org/2000/svg"
        xmlns="http://www.w3.org/2000/svg"
        xmlns:sodipodi="http://sodipodi.sourceforge.net/DTD/sodipodi-0.dtd"
        xmlns:inkscape="http://www.inkscape.org/namespaces/inkscape"
        version="1.1"
        id="Layer_1"
        x="0px"
        y="0px"
        width="50px"
        height="50px"
        viewBox="-225.5 476.5 50 50"
        enable-background="new -225.5 476.5 50 50"
        xml:space="preserve"
        inkscape:version="0.48.2 r9819"
        sodipodi:docname="palantir-logo-white.svg"
        inkscape:export-filename="/palantir/code33-bootstrap/plugins/pt-blueprint-component-logo/src/main/resources/img/palantir-compass-logo-white-50.png"
        inkscape:export-xdpi="90"
        inkscape:export-ydpi="90"><metadata
   id="metadata13"><rdf:RDF><cc:Work
       rdf:about=""><dc:format>image/svg+xml</dc:format><dc:type
        rdf:resource="http://purl.org/dc/dcmitype/StillImage"/><dc:title></dc:title></cc:Work></rdf:RDF></metadata>
    <defs
            id="defs11"/>
    <sodipodi:namedview
            pagecolor="#ffffff"
            bordercolor="#666666"
            borderopacity="1"
            objecttolerance="10"
            gridtolerance="10"
            guidetolerance="10"
            inkscape:pageopacity="0"
            inkscape:pageshadow="2"
            inkscape:window-width="736"
            inkscape:window-height="480"
            id="namedview9"
            showgrid="false"
            inkscape:zoom="4.72"
            inkscape:cx="25"
            inkscape:cy="25"
            inkscape:window-x="2217"
            inkscape:window-y="277"
            inkscape:window-maximized="0"
            inkscape:current-layer="Layer_1"/>
    <g
            id="g3"
            transform="matrix(0.48,0,0,0.48,-104.26052,260.77974)">
	<g
            id="g5">
		<path
                d="m -183.581,512.703 -16.918,7.307 -16.92,-7.307 -2.812,5.39 19.731,8.407 19.729,-8.407 -2.81,-5.39 z m -16.918,1.66 c 10.452,0 18.929,-8.478 18.929,-18.935 0,-10.454 -8.477,-18.929 -18.929,-18.929 -10.455,0 -18.93,8.475 -18.93,18.929 0,10.458 8.475,18.935 18.93,18.935 z m -0.001,-32.004 c 7.228,0 13.089,5.859 13.089,13.088 0,7.229 -5.861,13.095 -13.089,13.095 -7.229,0 -13.088,-5.866 -13.088,-13.095 0,-7.229 5.859,-13.088 13.088,-13.088 z"
                id="path7"
                inkscape:connector-curvature="0"
                style="fill:#ffffff"/>
	</g>
</g>
</svg>