<?xml version="1.0" encoding="iso-8859-1"?>
<!-- Generator: Adobe Illustrator 19.0.0, SVG Export Plug-In . SVG Version: 6.00 Build 0)  -->
<svg version="1.1" id="Capa_1" xmlns="http://www.w3.org/2000/svg" xmlns:xlink="http://www.w3.org/1999/xlink" x="0px"
	 y="0px"
	 viewBox="0 0 512 512" style="enable-background:new 0 0 512 512;" xml:space="preserve">
<path style="fill:#135693;" d="M256,51.579c-2.61,0-5.129-0.398-7.5-1.136v35.75h15v-35.75C261.129,51.182,258.61,51.579,256,51.579
	z"/>
	<circle style="fill:#6BC1DD;" cx="256" cy="26.29" r="26.29"/>
	<g style="opacity:0.15;">
	<path style="fill:#440075;" d="M251.839,26.29c0-10.565,6.235-19.67,15.226-23.849C263.7,0.878,259.954,0,256,0
		c-14.52,0-26.29,11.771-26.29,26.29S241.48,52.579,256,52.579c3.954,0,7.7-0.878,11.065-2.441
		C258.074,45.96,251.839,36.855,251.839,26.29z"/>
</g>
	<g>
	<path style="fill:#9EA7AF;" d="M423.574,127.228h-15.503v143.018h15.503c8.499,0,15.453-6.953,15.453-15.452V142.68
		C439.027,134.182,432.073,127.228,423.574,127.228z"/>
		<path style="fill:#9EA7AF;" d="M103.929,127.228H87.403c-8.499,0-15.452,6.954-15.452,15.452v112.113
		c0,8.499,6.953,15.452,15.452,15.452h16.525L103.929,127.228L103.929,127.228z"/>
</g>
	<g>
	<path style="fill:#C5CCD3;" d="M114.467,457.353H93.231c-7.25,0-13.985-2.203-19.573-5.976v50.32
		c0,5.666,4.636,10.302,10.302,10.302h30.507C114.467,511.999,114.467,457.353,114.467,457.353z"/>
		<path style="fill:#C5CCD3;" d="M418.769,457.353h-21.235V512h30.507c5.666,0,10.302-4.636,10.302-10.302v-50.319
		C432.754,455.15,426.019,457.353,418.769,457.353z"/>
</g>
	<path style="opacity:0.15;fill:#440075;enable-background:new    ;" d="M95.292,501.698v-44.345h-2.061
	c-7.25,0-13.985-2.203-19.573-5.976v50.32c0,5.666,4.636,10.302,10.302,10.302h21.634C99.928,512,95.292,507.364,95.292,501.698z"/>
	<g>
	<path style="fill:#E6E9ED;" d="M114.467,378.592H93.231c-19.344,0-35.026,15.682-35.026,35.026v10.302
		c0,19.344,15.683,35.025,35.026,35.025h21.235L114.467,378.592L114.467,378.592z"/>
		<path style="fill:#E6E9ED;" d="M418.769,378.592h-21.235v80.354h21.235c19.345,0,35.026-15.682,35.026-35.025v-10.302
		C453.795,394.273,438.113,378.592,418.769,378.592z"/>
</g>
	<g style="opacity:0.15;">
	<path style="fill:#440075;" d="M82.93,423.92v-10.302c0-19.345,15.682-35.026,35.026-35.026H93.231
		c-19.344,0-35.026,15.682-35.026,35.026v10.302c0,19.344,15.683,35.025,35.026,35.025h24.725
		C98.611,458.945,82.93,443.264,82.93,423.92z"/>
</g>
	<rect x="221.81" y="310.05" style="fill:#9EA7AF;" width="68.39" height="25.556"/>
	<rect x="221.81" y="310.05" style="opacity:0.15;fill:#440075;enable-background:new    ;" width="24.921"
		  height="25.556"/>
	<path style="fill:#C5CCD3;" d="M336.449,360v-16.625c0-4.886-3.998-8.884-8.884-8.884H181.44c-4.887,0-8.885,3.998-8.885,8.884V360
	H336.449z"/>
	<path style="opacity:0.15;fill:#440075;enable-background:new    ;" d="M203.366,360v-16.625c0-4.886,3.998-8.884,8.886-8.884
	H181.44c-4.887,0-8.885,3.998-8.885,8.884V360H203.366z"/>
	<path style="fill:#9EA7AF;" d="M383.08,358.245H128.92c-8.499,0-15.453,6.954-15.453,15.453V512h285.066V373.698
	C398.533,365.199,391.58,358.245,383.08,358.245z"/>
	<g style="opacity:0.15;">
	<path style="fill:#440075;" d="M158.427,358.245H128.92c-8.499,0-15.453,6.954-15.453,15.453V512h29.507V373.698
		C142.974,365.199,149.928,358.245,158.427,358.245z"/>
</g>
	<path style="fill:#C5CCD3;" d="M409.071,295.787c0,8.499-6.954,15.452-15.452,15.452H118.381c-8.498,0-15.452-6.953-15.452-15.452
	V100.646c0-8.499,6.954-15.452,15.452-15.452h275.238c8.498,0,15.452,6.953,15.452,15.452V295.787z"/>
	<g style="opacity:0.15;">
	<path style="fill:#440075;" d="M132.378,295.787V100.646c0-8.499,6.954-15.452,15.453-15.452h-29.45
		c-8.498,0-15.452,6.953-15.452,15.452v195.142c0,8.499,6.954,15.452,15.452,15.452h29.45
		C139.332,311.239,132.378,304.286,132.378,295.787z"/>
</g>
	<path style="fill:#135693;" d="M372.504,198.507c0,29.479-23.897,53.372-53.374,53.372H192.871
	c-29.479,0-53.375-23.894-53.375-53.372l0,0c0-29.478,23.896-53.372,53.375-53.372H319.13
	C348.607,145.135,372.504,169.029,372.504,198.507L372.504,198.507z"/>
	<g style="opacity:0.15;">
	<path style="fill:#440075;" d="M169.465,198.507c0-29.478,23.896-53.372,53.375-53.372h-29.969
		c-29.479,0-53.375,23.895-53.375,53.372c0,29.479,23.896,53.372,53.375,53.372h29.969
		C193.361,251.879,169.465,227.985,169.465,198.507z"/>
</g>
	<g>
	<ellipse style="fill:#6BC1DD;" cx="187.54" cy="198.51" rx="20.754" ry="20.836"/>
		<ellipse style="fill:#6BC1DD;" cx="324.86" cy="198.51" rx="20.754" ry="20.836"/>
</g>
	<path style="fill:#135693;" d="M348.072,512v-89.81c0-5.666-4.636-10.302-10.302-10.302H174.23c-5.666,0-10.302,4.636-10.302,10.302
	V512H348.072z"/>
	<path style="fill:#FFC502;" d="M274.543,512v-28.966c0-1.7-1.391-3.091-3.09-3.091h-30.906c-1.699,0-3.09,1.391-3.09,3.091V512
	H274.543z"/>
	<g>
	<path style="fill:#C5CCD3;" d="M212.732,444.133h-23.694c-4.143,0-7.5-3.357-7.5-7.5s3.357-7.5,7.5-7.5h23.694
		c4.143,0,7.5,3.357,7.5,7.5C220.232,440.775,216.875,444.133,212.732,444.133z"/>
		<path style="fill:#C5CCD3;" d="M202.431,462.441h-13.393c-4.143,0-7.5-3.357-7.5-7.5s3.357-7.5,7.5-7.5h13.393
		c4.143,0,7.5,3.357,7.5,7.5S206.573,462.441,202.431,462.441z"/>
		<path style="fill:#C5CCD3;" d="M212.732,480.752h-23.694c-4.143,0-7.5-3.358-7.5-7.5c0-4.143,3.357-7.5,7.5-7.5h23.694
		c4.143,0,7.5,3.357,7.5,7.5C220.232,477.395,216.875,480.752,212.732,480.752z"/>
		<path style="fill:#C5CCD3;" d="M199.34,499.06h-10.302c-4.143,0-7.5-3.357-7.5-7.5c0-4.142,3.357-7.5,7.5-7.5h10.302
		c4.143,0,7.5,3.358,7.5,7.5C206.84,495.703,203.482,499.06,199.34,499.06z"/>
</g>
	<path style="fill:#E6E9ED;" d="M319.561,491.526h-18.288c-4.339,0-7.855-3.517-7.855-7.857s3.517-7.856,7.855-7.856h18.288
	c4.339,0,7.857,3.517,7.857,7.856C327.418,488.01,323.9,491.526,319.561,491.526z"/>
	<circle style="fill:#5DC647;" cx="310.42" cy="447.8" r="16.5"/>
	<path style="fill:#6BC1DD;" d="M275,456.428c0,1.742-1.425,3.166-3.166,3.166h-31.668c-1.741,0-3.166-1.424-3.166-3.166v-17.264
	c0-1.742,1.425-3.167,3.166-3.167h31.668c1.741,0,3.166,1.425,3.166,3.167V456.428z"/>
	<g>
</g>
	<g>
</g>
	<g>
</g>
	<g>
</g>
	<g>
</g>
	<g>
</g>
	<g>
</g>
	<g>
</g>
	<g>
</g>
	<g>
</g>
	<g>
</g>
	<g>
</g>
	<g>
</g>
	<g>
</g>
	<g>
</g>
</svg>
