<svg version="1" xmlns="http://www.w3.org/2000/svg" width="933.333" height="933.333"
     viewBox="0 0 700.000000 700.000000">
    <path d="M340.5 1.2c-17.3 5.5-27.7 20.8-26 38.2 1 11.8 8.9 23.2 19.6 28.6l5.6 2.9-.1 22.8-.1 22.8h-183l-4.8 2.8c-4.9 2.9-9.1 8.2-10.2 12.9-.4 1.5-.8 11.4-.9 22l-.1 19.3-13.5.5c-17.3.7-21.5 2.6-26.7 12.2-1.6 3.1-1.7 8.8-1.8 83.8-.1 44.9.3 82.1.8 84.1 1.2 4.9 5.9 10.5 11 13.1 3.6 1.8 6.1 2.1 17.2 2.2l13 .2.2 19.8c.2 17.9.4 20.1 2.3 24.2 2.4 4.8 7.1 9 12.3 10.8 2.4.8 23.9 1.1 75.5 1.1l72.2-.1.1 4.6c.2 14.4 0 26.2-.4 26.7-.3.2-13.6.5-29.5.6-27.8.2-29.2.3-31.9 2.3-4.4 3.3-5.2 6-5.4 18.6l-.1 11.5h-31.7c-34.6 0-36.3.3-42.4 6.1-4.9 4.7-6.5 8.7-6.6 17.2l-.1 4.6-15.6-.1c-8.6 0-18.2.5-21.5 1.2-17.3 3.5-31.4 16.6-36.4 33.8-1.6 5.8-2 9.7-1.9 20.1.2 16.1.6 18.5 4.9 27.9 1.9 4.3 9.6 14.4 11.7 15.3.3.2 1.5 1.1 2.5 2 1.8 1.6 1.9 3.5 2 36.9v35.2l2.4 3.6c4.8 7.1-15.7 6.6 249.1 6.3l238.7-.3 3.5-3.4c2.2-2.1 3.8-4.9 4.3-7 .3-2 .6-18.4.6-36.5v-33l5.3-4.9c7.8-7.1 12.2-14.8 15.1-26.7.2-.8.5-6.7.6-13 .5-19.9-2.8-30.9-12.4-41.4-6.2-6.8-12.5-10.8-21.3-13.6-5.8-1.9-9.3-2.3-24-2.4l-17.1-.1-.6-6c-.7-7.3-3.1-12.6-7.3-16.2-6.4-5.4-7.4-5.5-43.8-5.6H460v-11.1c0-12.8-1.5-17.1-6.8-19.8-2.8-1.4-7.1-1.6-29.3-1.6-14.3.1-26.2-.1-26.4-.4-.4-.4-.8-22.4-.6-29.3.1-2 .5-2 72.3-2 51.3 0 73.2-.3 75.5-1.1 5.2-1.8 9.9-6 12.3-10.8 2-4.2 2.1-5.9 2-24 0-10.8.3-19.7.7-19.7.5-.1 5.8-.3 11.8-.4 6.1-.2 12.1-.6 13.5-.9 4.3-1 10.4-6.2 12.9-11l2.4-4.7v-80.7c0-88.8.2-84.8-6.1-91.6-5-5.3-9.4-6.6-22.8-6.6h-12.1l-.1-20.3c-.1-11.8-.6-21.5-1.2-23.1-1.8-4.9-5-8.5-9.8-11.3l-4.7-2.8h-183l-.1-23.3c-.1-22 0-23.2 1.7-23.2 1.1 0 1.9-.5 1.9-1 0-.6.9-1 2-1s2-.5 2-1c0-.6.6-1 1.4-1 2.3 0 10.6-9.8 13.4-15.8 2.1-4.7 2.6-7.2 2.6-14.2.1-7.5-.3-9.2-3.1-15-4.9-10.2-11.9-16.4-21.9-19.3-5.7-1.6-15.6-1.9-19.9-.5z"/>
</svg>